<svg version="1.1" id="Layer_1" xmlns="http://www.w3.org/2000/svg" xmlns:xlink="http://www.w3.org/1999/xlink" x="0px" y="0px"
	 width="100%" viewBox="0 0 800 800" enable-background="new 0 0 800 800" xml:space="preserve">
<path fill="#000000" opacity="1.000000" stroke="none" 
	d="
M377.526062,357.621826 
	C381.034119,364.460388 382.405731,371.359009 382.402527,378.670868 
	C382.357117,482.493011 382.398468,586.315125 382.357605,690.137268 
	C382.346802,717.626465 360.682983,739.198303 333.115753,739.217285 
	C265.123077,739.264099 197.130341,739.266785 129.137680,739.221863 
	C100.295433,739.202820 78.729424,717.463989 78.721642,688.435547 
	C78.694138,585.946472 78.650467,483.457397 78.762444,380.968475 
	C78.786476,358.978088 89.146973,343.287811 109.163055,334.060455 
	C110.213577,333.576141 111.399651,333.340363 112.321571,331.770721 
	C107.942055,325.609894 105.613800,318.526855 105.640114,310.608948 
	C105.705727,290.865692 118.335236,277.414001 138.106934,276.999878 
	C143.352905,276.890015 145.101593,275.466980 144.846680,270.192841 
	C144.583649,264.751312 144.051651,259.208893 145.490173,253.781952 
	C147.993195,244.339249 155.221130,238.229370 164.914062,237.945984 
	C173.406082,237.697723 181.918274,237.635132 190.407532,237.915405 
	C203.320374,238.341705 211.291260,246.838028 211.344208,259.765289 
	C211.361267,263.931458 211.513763,268.106079 211.301743,272.261383 
	C211.120743,275.808777 212.632156,276.958099 216.009903,276.889160 
	C223.006165,276.746277 230.019608,276.600830 237.002502,276.939880 
	C241.724503,277.169128 242.915009,275.338593 242.900375,270.864380 
	C242.767517,230.202530 242.839035,189.540024 242.821259,148.877716 
	C242.819214,144.192245 243.031372,139.506638 244.539780,135.071442 
	C249.108612,121.637810 258.874207,114.724251 272.729675,113.166740 
	C289.476776,111.284187 303.511292,120.409401 308.528351,136.272354 
	C309.413361,139.070602 309.337280,141.857407 309.338715,144.671585 
	C309.359619,186.333786 309.353241,227.996002 309.357056,269.658203 
	C309.357697,276.841705 309.366486,276.920868 316.543427,276.850861 
	C324.084991,276.777283 331.568909,276.861115 338.452148,280.578339 
	C349.139435,286.349792 354.808502,295.140381 355.428864,307.429474 
	C355.878021,316.326996 354.270721,324.570129 349.112152,332.430206 
	C361.497864,337.898438 371.550629,345.257355 377.526062,357.621826 
M368.837708,639.500000 
	C368.840546,554.005615 368.850525,468.511230 368.823730,383.016846 
	C368.822479,379.037933 369.078827,375.041168 368.008148,371.098267 
	C363.406311,354.151215 349.957123,343.918579 331.901093,343.909546 
	C271.237854,343.879272 210.574631,343.901978 149.911407,343.893951 
	C143.912506,343.893158 137.899063,344.076324 131.917282,343.736237 
	C109.618866,342.468414 92.346123,358.667969 92.341095,381.169189 
	C92.318314,483.163422 92.316864,585.157654 92.335075,687.151917 
	C92.339142,709.946228 107.889481,725.624146 130.561966,725.636902 
	C197.558167,725.674561 264.554382,725.657593 331.550598,725.646057 
	C354.694885,725.642090 369.520966,707.242798 368.937897,688.494080 
	C368.440826,672.510437 368.835999,656.499084 368.837708,639.500000 
M126.897209,294.298645 
	C119.568893,300.750793 117.320511,309.192688 120.534058,318.190002 
	C123.080780,325.320343 129.600784,329.867188 137.994125,329.874359 
	C199.791428,329.927338 261.588776,329.906921 323.386139,329.903595 
	C326.579529,329.903442 329.656128,329.479645 332.524689,327.849915 
	C340.321198,323.420380 343.808441,314.372681 341.465912,304.379608 
	C339.623169,296.518646 332.625458,291.163086 323.789886,290.926300 
	C316.637512,290.734589 309.474670,291.305145 302.327087,290.442993 
	C298.585815,289.991699 296.645996,287.896484 296.127289,284.378601 
	C295.862122,282.579987 295.911163,280.727081 295.910309,278.898651 
	C295.888855,234.424622 295.924713,189.950500 295.831940,145.476639 
	C295.812683,136.245743 290.279083,129.142410 282.336090,127.398308 
	C271.621155,125.045555 262.462677,128.767715 258.474670,137.271515 
	C256.680328,141.097733 256.340393,145.251968 256.342560,149.455978 
	C256.364838,192.764114 256.359589,236.072235 256.350220,279.380371 
	C256.348053,289.388519 254.979370,290.739227 244.854431,290.890015 
	C243.688644,290.907379 242.522507,290.904419 241.356522,290.904663 
	C207.542877,290.912354 173.729218,290.928802 139.915573,290.914581 
	C135.525421,290.912750 131.247147,291.220581 126.897209,294.298645 
M194.083069,276.821472 
	C196.947754,276.944061 197.798004,275.372711 197.738419,272.755859 
	C197.636307,268.270721 197.797684,263.778625 197.654892,259.295624 
	C197.504486,254.574173 194.631317,251.589035 189.764908,251.469727 
	C182.124863,251.282425 174.471115,251.255936 166.833694,251.495972 
	C161.386505,251.667191 158.510239,254.952133 158.371185,260.547302 
	C158.276245,264.367371 158.538864,268.203003 158.306076,272.011139 
	C158.076660,275.763977 159.647903,276.962402 163.257370,276.906464 
	C173.226761,276.752014 183.200043,276.848419 194.083069,276.821472 
z"/>
<path fill="#000000" opacity="1.000000" stroke="none" 
	d="
M723.290649,395.000061 
	C723.293884,472.160736 723.298889,548.821411 723.298828,625.482056 
	C723.298767,654.952209 702.033936,676.317322 672.637268,676.324463 
	C604.809265,676.341003 536.980652,676.172546 469.153412,676.402039 
	C441.252167,676.496460 419.410767,653.394592 419.496552,627.142944 
	C419.832642,524.319031 419.689728,421.493317 419.579163,318.668427 
	C419.554504,295.736267 430.188538,280.162201 450.829132,270.951752 
	C451.431091,270.683136 452.026245,270.396423 452.606628,270.084686 
	C452.725433,270.020874 452.763611,269.806976 453.066406,269.225372 
	C445.805573,259.666901 445.051147,248.560852 447.782043,237.173019 
	C450.933533,224.031494 463.218781,214.762833 476.744720,214.652634 
	C486.236908,214.575302 485.671112,215.630508 485.655151,205.761597 
	C485.649780,202.428528 485.616577,199.095047 485.657318,195.762482 
	C485.798004,184.255386 494.001740,175.873932 505.395264,175.604828 
	C513.388733,175.416016 521.385254,175.074722 529.376953,175.152832 
	C543.582153,175.291641 552.041077,183.848450 552.229431,197.959564 
	C552.285034,202.125244 552.342834,206.294144 552.238525,210.457550 
	C552.166016,213.354462 553.178467,214.726105 556.281189,214.675629 
	C563.945190,214.550980 571.613953,214.552231 579.277954,214.677231 
	C582.493164,214.729660 583.928040,213.493896 583.664429,210.259048 
	C583.556519,208.934753 583.650696,207.594070 583.650757,206.260849 
	C583.653198,165.097397 583.633362,123.933945 583.667419,82.770523 
	C583.682922,63.997150 597.093872,51.390491 615.737122,50.449661 
	C635.467529,49.453976 650.798889,64.440132 650.491455,85.386467 
	C649.889832,126.374420 650.407166,167.377899 650.200623,208.373657 
	C650.174561,213.540253 651.736389,214.990326 656.732239,214.769180 
	C663.167358,214.484329 669.679993,214.023270 675.987000,216.463882 
	C697.961731,224.967346 699.904114,249.758286 692.773438,263.734406 
	C691.797241,265.647736 690.671021,267.484558 689.701416,269.202393 
	C690.323914,271.024231 691.884094,270.963837 693.031738,271.490173 
	C712.513367,280.425507 722.858643,295.660645 723.193665,317.010529 
	C723.598816,342.834503 723.290222,368.669708 723.290649,395.000061 
M690.763367,658.329773 
	C702.879333,651.365967 709.582153,640.891418 709.598328,626.934631 
	C709.718018,523.445679 709.678528,419.956543 709.635864,316.467468 
	C709.627930,297.258301 693.938904,281.266907 674.751221,281.237976 
	C605.758728,281.134033 536.765869,281.142639 467.773407,281.265808 
	C448.591888,281.300049 433.288879,296.872253 433.278534,316.128265 
	C433.222778,419.783752 433.213654,523.439209 433.275024,627.094727 
	C433.286926,647.174194 449.141968,662.669800 469.294037,662.672913 
	C536.786926,662.683411 604.279846,662.644348 671.772583,662.731506 
	C678.263062,662.739868 684.317200,661.491455 690.763367,658.329773 
M624.152832,65.083664 
	C606.223145,60.713779 596.901062,71.626785 597.087463,85.885002 
	C597.657898,129.518982 597.300171,173.165146 597.290710,216.806580 
	C597.288635,226.426819 595.540100,228.170425 585.943176,228.173157 
	C550.463684,228.183212 514.983948,228.256653 479.505005,228.125412 
	C471.737061,228.096664 465.533081,230.840927 462.256683,237.765808 
	C456.662628,249.589203 460.693176,267.569397 480.297272,267.584503 
	C525.271240,267.619141 570.245239,267.601746 615.219238,267.604675 
	C631.209961,267.605713 647.201355,267.691284 663.191284,267.575775 
	C675.293457,267.488373 682.695496,259.579010 682.665466,247.099686 
	C682.637878,235.652420 675.222412,228.318069 663.454224,228.167038 
	C658.291321,228.100784 653.127014,228.149857 647.963318,228.138824 
	C638.283630,228.118164 636.674744,226.518936 636.672791,216.787964 
	C636.663818,172.646820 636.622803,128.505600 636.703308,84.364601 
	C636.719604,75.430771 633.169495,68.993530 624.152832,65.083664 
M538.645630,199.803375 
	C538.436829,192.130890 536.671753,189.368057 531.027832,189.190140 
	C522.877563,188.933212 514.709473,188.976120 506.556091,189.178986 
	C501.722748,189.299255 499.429871,191.918274 499.303894,196.869064 
	C499.189575,201.362274 499.383881,205.865341 499.199188,210.354050 
	C499.062469,213.677307 500.526672,214.731812 503.664948,214.676941 
	C510.656158,214.554703 517.651123,214.647949 524.644592,214.648392 
	C538.665039,214.649277 538.665039,214.647888 538.645630,199.803375 
z"/>
<path fill="#000000" opacity="1.000000" stroke="none" 
	d="
M333.275024,481.942261 
	C333.268494,495.453278 332.526306,496.199615 319.346405,496.200806 
	C259.384583,496.206177 199.422775,496.205780 139.460953,496.202271 
	C130.202103,496.201721 128.622787,494.663422 128.618683,485.578033 
	C128.604355,453.931549 128.602600,422.285065 128.605270,390.638580 
	C128.606018,381.818115 130.072937,380.228088 139.051147,380.065308 
	C147.876114,379.905304 156.705856,379.998383 165.533493,379.998627 
	C216.334473,380.000061 267.135437,380.000610 317.936432,380.015778 
	C332.705139,380.020203 333.292389,380.635895 333.289368,395.507874 
	C333.283539,424.156036 333.279388,452.804169 333.275024,481.942261 
M174.500000,394.121735 
	C165.506104,394.112885 156.510315,394.208099 147.519226,394.044830 
	C143.825089,393.977783 142.115463,394.991974 142.137604,399.095825 
	C142.278595,425.244385 142.274872,451.394287 142.153397,477.542999 
	C142.135223,481.453186 143.419785,482.714478 147.347244,482.703278 
	C187.153809,482.589569 226.960999,482.582428 266.767426,482.718414 
	C270.858459,482.732391 271.872711,481.239471 271.860443,477.461182 
	C271.840546,471.320526 271.112244,465.131104 272.335510,459.032715 
	C273.112823,455.157532 275.702667,453.344452 279.584656,453.770660 
	C283.485352,454.198944 285.422699,456.471069 285.362427,460.513184 
	C285.275513,466.341278 285.484558,472.175934 285.303162,477.999573 
	C285.194611,481.484894 286.567749,482.735016 289.990082,482.674347 
	C297.815613,482.535553 305.656219,482.395844 313.469666,482.737762 
	C318.234344,482.946289 319.793304,481.447021 319.750702,476.567017 
	C319.531189,451.419067 319.646759,426.268250 319.642670,401.118408 
	C319.641510,394.108307 319.637268,394.095978 312.408508,394.096802 
	C266.772339,394.101807 221.136169,394.112762 174.500000,394.121735 
z"/>
<path fill="#000000" opacity="1.000000" stroke="none" 
	d="
M158.683960,544.624084 
	C165.357727,537.835754 167.955414,537.784363 173.995422,544.572144 
	C179.862427,551.165405 185.573303,557.900635 191.241806,564.666443 
	C194.268707,568.279358 194.175446,572.923523 191.294235,575.455750 
	C188.110901,578.253479 184.328140,577.745911 180.862015,573.843506 
	C176.034271,568.408020 171.320724,562.871155 167.682877,558.674927 
	C161.419189,564.093689 155.450623,569.126892 149.642670,574.339111 
	C146.927795,576.775513 144.201462,578.214111 140.658844,576.325378 
	C136.422989,574.067078 135.843567,568.975342 139.588638,564.889709 
	C145.778198,558.137268 152.135391,551.538513 158.683960,544.624084 
z"/>
<path fill="#000000" opacity="1.000000" stroke="none" 
	d="
M273.218964,626.727173 
	C272.203064,625.592957 271.384460,624.760620 270.636139,623.869324 
	C267.128357,619.691772 266.838776,615.533264 269.837372,612.764282 
	C273.171204,609.685791 277.330627,610.308838 281.105042,614.605469 
	C284.402679,618.359314 287.558136,622.237732 290.808075,626.033997 
	C292.088928,627.530212 293.455688,628.952820 294.935974,630.576355 
	C299.347534,627.801392 302.141327,623.826172 305.467926,620.422791 
	C308.027344,617.804321 310.377472,614.941895 313.163300,612.594604 
	C316.274719,609.972900 319.768829,610.178833 322.556152,613.194580 
	C325.195801,616.050659 325.065765,619.453552 322.529480,622.251648 
	C315.259888,630.271790 307.901886,638.219177 300.354584,645.977112 
	C296.841248,649.588501 292.504120,649.171692 289.041077,645.228760 
	C283.765411,639.221863 278.638641,633.084167 273.218964,626.727173 
z"/>
<path fill="#000000" opacity="1.000000" stroke="none" 
	d="
M281.781036,572.863647 
	C280.826111,573.830811 280.178833,574.608521 279.403046,575.224365 
	C276.065887,577.873779 272.613586,578.104553 269.598907,574.922546 
	C266.755432,571.921387 266.978485,568.283752 269.583160,565.421692 
	C276.850250,557.436646 284.301270,549.610657 291.896698,541.936584 
	C295.175476,538.623901 299.381470,538.741272 302.497864,542.243042 
	C309.346222,549.938354 315.988800,557.822083 322.546448,565.768311 
	C325.251709,569.046448 325.166718,572.750732 321.854645,575.536865 
	C318.514984,578.346252 314.911163,577.626404 312.099640,574.484192 
	C307.131073,568.931152 302.361633,563.199890 297.251434,557.243042 
	C291.145477,561.723022 287.094757,567.681763 281.781036,572.863647 
z"/>
<path fill="#000000" opacity="1.000000" stroke="none" 
	d="
M157.631836,644.487244 
	C151.575836,637.373474 145.741226,630.557434 139.965881,623.691528 
	C136.389206,619.439453 136.218857,615.475708 139.365509,612.676819 
	C142.635544,609.768188 146.411407,610.308777 150.189590,614.494507 
	C154.849167,619.656616 159.357910,624.954956 164.090866,630.376587 
	C168.517181,627.997375 171.057510,624.013977 174.308685,620.824219 
	C176.561295,618.614197 178.690369,616.277771 180.954071,614.079651 
	C184.797943,610.347107 188.549606,609.867371 191.448883,612.640076 
	C194.285629,615.352966 194.129944,620.169861 190.783203,623.810547 
	C185.275269,629.802246 179.602615,635.642578 174.001190,641.548340 
	C172.971954,642.633484 171.967285,643.742310 170.923813,644.813538 
	C166.152847,649.711548 162.898056,649.695129 157.631836,644.487244 
z"/>
<path fill="#000000" opacity="1.000000" stroke="none" 
	d="
M180.098572,682.365234 
	C184.299438,684.020752 185.934082,686.865051 184.974625,690.798889 
	C184.036011,694.647278 180.946976,695.848511 177.348572,695.867798 
	C169.386703,695.910522 161.420105,696.015869 153.463684,695.796265 
	C148.039795,695.646606 145.571152,693.164124 145.715424,688.788696 
	C145.853043,684.615356 148.378830,682.109924 153.333313,682.046936 
	C162.116989,681.935181 170.904938,682.158936 180.098572,682.365234 
z"/>
<path fill="#000000" opacity="1.000000" stroke="none" 
	d="
M222.336349,600.998657 
	C220.721115,600.877869 219.546417,600.849243 218.411026,600.623108 
	C214.570358,599.858154 212.591568,597.435181 212.807938,593.556091 
	C213.010330,589.927490 215.087769,587.518250 218.740082,587.282471 
	C227.888092,586.692017 237.059875,586.682434 246.207321,587.302429 
	C250.091232,587.565735 252.244476,589.988464 252.246765,593.927734 
	C252.249039,597.840454 250.153595,600.434692 246.270386,600.609558 
	C238.455200,600.961426 230.621155,600.894470 222.336349,600.998657 
z"/>
<path fill="#000000" opacity="1.000000" stroke="none" 
	d="
M281.870056,695.688416 
	C277.607178,694.308899 275.716095,691.830750 276.535004,687.624695 
	C277.372437,683.323547 280.473206,682.088440 284.256165,682.041016 
	C292.087158,681.942932 299.923157,681.865601 307.751160,682.042419 
	C313.023590,682.161438 315.833160,684.781494 315.853210,688.957825 
	C315.873535,693.193420 313.316925,695.618774 307.774292,695.753601 
	C299.282959,695.960266 290.782227,695.781372 281.870056,695.688416 
z"/>
<path fill="#000000" opacity="1.000000" stroke="none" 
	d="
M251.757980,650.625610 
	C252.500809,657.508972 250.396790,660.148315 244.121277,660.256897 
	C236.303345,660.392273 228.479996,660.349182 220.660980,660.240356 
	C215.668198,660.170959 212.665863,657.372498 212.772827,653.223267 
	C212.877655,649.157043 215.634949,646.727112 220.507721,646.682251 
	C228.493896,646.608704 236.481415,646.693298 244.468063,646.653625 
	C247.491516,646.638611 250.079636,647.326111 251.757980,650.625610 
z"/>
<path fill="#000000" opacity="1.000000" stroke="none" 
	d="
M231.005798,541.328796 
	C226.857330,541.315857 223.206329,541.335144 219.556381,541.281738 
	C215.287720,541.219299 213.100845,538.661987 212.874939,534.744141 
	C212.652618,530.888977 215.050385,528.091492 218.736923,527.942627 
	C227.845184,527.575073 236.987656,527.566162 246.096085,527.926270 
	C249.907425,528.077026 252.602859,530.549194 252.248108,534.893921 
	C251.915009,538.973145 249.614059,541.228699 245.441910,541.284424 
	C240.796478,541.346558 236.149826,541.317932 231.005798,541.328796 
z"/>
<path fill="#000000" opacity="1.000000" stroke="none" 
	d="
M476.350891,317.680450 
	C538.787048,317.677307 600.763428,317.677124 662.739807,317.682007 
	C672.288818,317.682770 673.360107,318.735199 673.365479,328.272217 
	C673.383545,360.093323 673.390625,391.914459 673.380554,423.735565 
	C673.378052,431.755157 671.800171,433.301941 663.668640,433.303040 
	C602.192078,433.311432 540.715515,433.312714 479.238953,433.301605 
	C470.945435,433.300079 468.781494,431.213959 468.775452,423.050232 
	C468.751862,391.229187 468.759033,359.408112 468.800140,327.587128 
	C468.809204,320.593933 470.292206,318.647034 476.350891,317.680450 
M533.500000,419.676697 
	C557.991089,419.676727 582.482666,419.591248 606.972656,419.756927 
	C611.292419,419.786102 613.013855,418.517487 612.738586,414.075104 
	C612.429993,409.096161 612.611145,404.082275 612.687805,399.085297 
	C612.768555,393.822479 615.205933,390.890259 619.342957,390.868011 
	C623.420105,390.846130 626.142334,393.918152 626.270508,399.002228 
	C626.396545,403.997314 626.551208,409.013519 626.234497,413.991272 
	C625.962830,418.261658 627.207642,419.982788 631.768494,419.772583 
	C639.249878,419.427795 646.768372,419.449646 654.252319,419.764648 
	C658.711243,419.952332 659.967529,418.324097 659.941711,414.016418 
	C659.786987,388.193481 659.789734,362.368774 659.939880,336.545776 
	C659.964722,332.273010 658.323669,331.237488 654.345825,331.244446 
	C598.866333,331.341370 543.386536,331.353149 487.907166,331.229828 
	C483.414246,331.219788 482.260529,332.830841 482.285339,337.076721 
	C482.435303,362.733032 482.445190,388.391296 482.267548,414.047333 
	C482.236938,418.464081 483.698059,419.831177 488.017761,419.771912 
	C502.842834,419.568481 517.672241,419.681549 533.500000,419.676697 
z"/>
<path fill="#000000" opacity="1.000000" stroke="none" 
	d="
M500.140564,481.057007 
	C506.144440,475.494751 509.033417,475.547668 514.067505,481.328979 
	C520.078918,488.232697 526.036133,495.186188 531.887268,502.225830 
	C535.142822,506.142731 534.999451,510.223389 531.847656,512.827148 
	C528.886719,515.273254 524.911804,514.805420 521.714722,511.285156 
	C516.808350,505.882782 512.084351,500.314789 506.934784,494.418488 
	C502.474762,497.891968 499.390961,502.238220 495.696320,505.948608 
	C493.582520,508.071350 491.617615,510.359497 489.372375,512.330078 
	C486.216675,515.099731 481.998169,515.040100 479.538208,512.212402 
	C476.839447,509.110229 476.939301,505.755615 479.695648,502.772278 
	C486.359985,495.559052 493.149872,488.461853 500.140564,481.057007 
z"/>
<path fill="#000000" opacity="1.000000" stroke="none" 
	d="
M478.129395,557.325195 
	C477.180969,553.410522 478.338409,550.437500 481.537140,549.001282 
	C485.096375,547.403198 488.261261,548.634766 490.817810,551.709534 
	C495.273346,557.068237 499.886902,562.295593 504.472809,567.622803 
	C507.846497,566.585815 509.397491,563.852112 511.450989,561.804443 
	C515.100403,558.165344 518.427979,554.196594 522.158203,550.647461 
	C525.133179,547.816895 528.787598,547.270691 532.055298,550.104492 
	C535.223206,552.851746 535.211670,556.643066 532.628235,559.503967 
	C525.054443,567.891052 517.281250,576.118835 509.204620,584.018921 
	C506.676971,586.491333 502.659027,586.379089 500.123260,583.585999 
	C492.532562,575.225342 484.972656,566.817383 478.129395,557.325195 
z"/>
<path fill="#000000" opacity="1.000000" stroke="none" 
	d="
M617.262573,495.276306 
	C622.315735,489.945190 627.010559,484.750488 631.979553,479.832794 
	C636.055481,475.798981 639.731079,475.849854 643.599792,480.139130 
	C650.180481,487.435028 656.567078,494.911957 662.857849,502.460632 
	C665.739380,505.918335 665.389587,510.421722 662.518127,512.790649 
	C659.574341,515.219299 655.265869,514.799377 652.263367,511.428040 
	C647.406799,505.974884 642.749939,500.343842 637.511292,494.204865 
	C633.088623,498.831848 629.010498,503.129395 624.894470,507.390350 
	C623.048157,509.301666 621.315125,511.399170 619.191589,512.947083 
	C616.348755,515.019287 613.107849,515.103027 610.546204,512.447754 
	C607.909424,509.714539 607.783447,506.322815 610.008972,503.323517 
	C612.081909,500.529938 614.664490,498.114502 617.262573,495.276306 
z"/>
<path fill="#000000" opacity="1.000000" stroke="none" 
	d="
M636.617859,567.245728 
	C641.864075,561.958008 646.780884,556.771606 651.771667,551.657410 
	C655.407471,547.931641 659.886292,547.344360 662.786377,550.081543 
	C665.990601,553.105774 665.699463,556.950867 661.883972,561.004639 
	C655.387390,567.906860 648.888184,574.807068 642.334656,581.655090 
	C637.084106,587.141602 633.286560,586.932495 628.290649,581.042297 
	C622.588623,574.319641 616.837769,567.638245 611.171387,560.885864 
	C607.880432,556.964172 607.797058,552.339417 610.820923,549.782837 
	C613.727661,547.325256 617.898987,547.991028 621.348633,551.766113 
	C625.048523,555.815186 628.524719,560.068054 632.126526,564.207642 
	C633.294128,565.549500 634.144348,567.353027 636.617859,567.245728 
z"/>
<path fill="#000000" opacity="1.000000" stroke="none" 
	d="
M554.632080,467.988434 
	C556.365967,465.831757 558.484070,465.086975 560.621948,465.051025 
	C569.081787,464.908722 577.547241,464.876465 586.006226,465.034393 
	C588.997070,465.090210 591.301208,466.641113 592.491882,469.650055 
	C593.553345,472.332520 592.728333,474.535004 591.094116,476.566162 
	C589.601929,478.420837 587.347656,478.750397 585.211670,478.775269 
	C577.248962,478.867950 569.271545,479.062225 561.324158,478.692444 
	C554.417725,478.371094 552.657593,475.386383 554.632080,467.988434 
z"/>
<path fill="#000000" opacity="1.000000" stroke="none" 
	d="
M516.786377,619.649902 
	C523.319885,619.883911 525.649536,621.752258 525.633301,626.368652 
	C525.618103,630.668945 522.592163,633.192139 517.087524,633.243591 
	C509.452118,633.314941 501.813965,633.338806 494.179840,633.211487 
	C489.031494,633.125610 486.202454,630.471680 486.315948,626.239380 
	C486.433990,621.837708 488.995636,619.699341 494.404083,619.662109 
	C501.707886,619.611816 509.012299,619.649414 516.786377,619.649902 
z"/>
<path fill="#000000" opacity="1.000000" stroke="none" 
	d="
M631.037170,619.642578 
	C637.348999,619.644287 643.167725,619.679199 648.985901,619.636780 
	C653.306458,619.605225 656.033630,621.381470 656.269531,625.947266 
	C656.506592,630.534485 653.708496,632.930908 649.647217,633.087524 
	C641.016907,633.420349 632.359375,633.388062 623.724731,633.122986 
	C619.571960,632.995483 616.938843,630.434143 616.835815,626.068787 
	C616.741333,622.066772 619.408752,619.781677 624.060913,619.629517 
	C626.219482,619.558899 628.382690,619.633667 631.037170,619.642578 
z"/>
<path fill="#000000" opacity="1.000000" stroke="none" 
	d="
M560.328979,524.675537 
	C568.928223,524.666443 577.064819,524.626404 585.200806,524.676392 
	C590.146729,524.706787 592.812317,526.992432 592.947327,531.122498 
	C593.074524,535.012817 590.124146,538.070007 585.507019,538.165710 
	C577.208923,538.337646 568.900024,538.343384 560.604248,538.110474 
	C556.829529,538.004517 553.835938,536.330261 553.637756,531.875732 
	C553.443298,527.505676 555.235291,524.868408 560.328979,524.675537 
z"/>
<path fill="#000000" opacity="1.000000" stroke="none" 
	d="
M574.986633,583.708008 
	C578.964539,583.728882 582.461792,583.551758 585.923828,583.822937 
	C590.033203,584.144897 592.818909,586.297119 592.952576,590.705872 
	C593.076294,594.784485 590.196899,597.262634 585.357117,597.306274 
	C577.233154,597.379578 569.107971,597.308594 560.983337,597.316895 
	C556.771851,597.321167 553.882141,595.789368 553.647400,591.117737 
	C553.431335,586.816895 555.826904,584.076965 560.566284,583.808411 
	C565.194702,583.546143 569.847961,583.723999 574.986633,583.708008 
z"/>
</svg>