<?xml version="1.0" encoding="utf-8"?>
<!-- Generator: Adobe Illustrator 27.7.0, SVG Export Plug-In . SVG Version: 6.00 Build 0)  -->
<svg version="1.1" id="Layer_1" xmlns="http://www.w3.org/2000/svg" xmlns:xlink="http://www.w3.org/1999/xlink" x="0px" y="0px"
	 viewBox="0 0 500 500" style="enable-background:new 0 0 500 500;" xml:space="preserve">
<style type="text/css">
	.st0{fill:#F3FAFE;}
	.st1{fill:#F3F2F3;}
	.st2{fill:#D5D4D5;}
	.st3{fill:#496FB6;}
	.st4{fill:#B5B6B6;}
	.st5{fill:#FFFFFF;}
</style>
<circle class="st0" cx="250.6" cy="249.6" r="250"/>
<g>
	<g>
		<path class="st1" d="M219.5,340.7h62.3c9.6,0,17.4,7.8,17.4,17.4v7.8h-97.1v-7.8C202.1,348.5,209.9,340.7,219.5,340.7z"/>
	</g>
	<g>
		<path class="st1" d="M218.8,313.3h63.8v27.4h-63.8V313.3z"/>
	</g>
	<g>
		<path class="st2" d="M218.8,313.3h63.8v13.1h-63.8V313.3z"/>
	</g>
	<g>
		<path class="st2" d="M202.1,359.8h97.1v6.5h-97.1V359.8z"/>
	</g>
	<g>
		<path class="st3" d="M282.5,342.9h-63.8c-1.2,0-2.2-1-2.2-2.2v-27.4c0-1.2,1-2.2,2.2-2.2h63.8c1.2,0,2.2,1,2.2,2.2v27.4
			C284.7,341.9,283.7,342.9,282.5,342.9z M220.9,338.5h59.4v-23.1h-59.4V338.5z"/>
	</g>
	<g>
		<path class="st3" d="M299.2,368.1h-97.1c-1.2,0-2.2-1-2.2-2.2v-7.8c0-10.8,8.8-19.6,19.6-19.6h62.3c10.8,0,19.6,8.8,19.6,19.6v7.8
			C301.4,367.1,300.4,368.1,299.2,368.1z M204.3,363.7H297v-5.7c0-8.4-6.8-15.2-15.2-15.2h-62.3c-8.4,0-15.2,6.8-15.2,15.2V363.7z"
			/>
	</g>
	<g>
		<path class="st3" d="M374.6,319.3H126.7c-8.4,0-15.2-6.8-15.2-15.2V148.4c0-8.4,6.8-15.2,15.2-15.2h247.9
			c8.4,0,15.2,6.8,15.2,15.2v155.7C389.8,312.5,383,319.3,374.6,319.3z"/>
	</g>
	<g>
		<path class="st3" d="M374.6,133.2H126.7c-4.7,0-8.9,2.1-11.7,5.4h259.7c5.1,0,9.2,4.1,9.2,9.2v167.8c0,0.2,0,0.4-0.1,0.5
			c3.6-2.8,5.9-7.1,5.9-12V148.4C389.8,140,383,133.2,374.6,133.2z"/>
	</g>
	<g>
		<path class="st3" d="M126.7,319.3h247.9c4.7,0,8.9-2.1,11.7-5.4H126.5c-5.1,0-9.2-4.1-9.2-9.2V137c0-0.2,0-0.4,0.1-0.5
			c-3.6,2.8-5.9,7.1-5.9,12v155.7C111.5,312.5,118.3,319.3,126.7,319.3z"/>
	</g>
	<g>
		<path class="st1" d="M374.6,319.3H126.7c-8.4,0-15.2-6.8-15.2-15.2V276h278.3v28.1C389.8,312.5,383,319.3,374.6,319.3z"/>
	</g>
	<g>
		<path class="st2" d="M376.2,319.2c0.2,0,0.3-0.1,0.5-0.1c0.4-0.1,0.7-0.1,1.1-0.2c0.2,0,0.4-0.1,0.6-0.1c0.3-0.1,0.7-0.2,1-0.3
			c0.2-0.1,0.4-0.1,0.5-0.2c0.3-0.1,0.6-0.2,0.9-0.4c0.2-0.1,0.3-0.2,0.5-0.2c0.3-0.2,0.6-0.3,0.9-0.5c0.1-0.1,0.3-0.2,0.4-0.3
			c0.3-0.2,0.6-0.4,0.9-0.6c0.1-0.1,0.2-0.2,0.3-0.3c0.3-0.3,0.6-0.5,0.9-0.8c0.1-0.1,0.2-0.1,0.2-0.2c0.4-0.4,0.7-0.7,1.1-1.1
			c0,0,0,0,0,0H126.5c-5.1,0-9.2-4.1-9.2-9.2V276h-5.9v28.1c0,3.7,1.3,7.1,3.5,9.7c0.6,0.8,1.3,1.4,2.1,2.1c2.6,2.2,6,3.5,9.7,3.5
			h247.9h0C375.1,319.3,375.7,319.3,376.2,319.2z"/>
	</g>
	<g>
		<path class="st1" d="M250.6,156.5c-25.5,0-46.1,20.7-46.1,46.1c0,12.6,5,23.9,13.2,32.3l-9.5,21.2l29.8-9.1
			c4,1.2,8.3,1.8,12.7,1.8c25.5,0,46.1-20.7,46.1-46.1S276.1,156.5,250.6,156.5z"/>
	</g>
	<g>
		<path class="st4" d="M209.1,214.6c0-25.5,20.7-46.1,46.1-46.1c17.3,0,32.4,9.6,40.3,23.7c-4.8-20.4-23-35.6-44.9-35.6
			c-25.5,0-46.1,20.7-46.1,46.1c0,8.1,2.1,15.8,5.8,22.4C209.6,221.6,209.1,218.2,209.1,214.6z"/>
	</g>
	<g>
		<g>
			<path class="st1" d="M228.5,193.1c0-12.2,9.9-22.1,22.1-22.1c12.2,0,22.1,9.9,22.1,22.1c0,12.2-9.9,22.1-22.1,22.1v12.1"/>
			<path class="st3" d="M250.6,229.4c-1.2,0-2.2-1-2.2-2.2v-12.1c0-1.2,1-2.2,2.2-2.2c11,0,19.9-8.9,19.9-19.9
				c0-11-8.9-19.9-19.9-19.9c-11,0-19.9,8.9-19.9,19.9c0,1.2-1,2.2-2.2,2.2c-1.2,0-2.2-1-2.2-2.2c0-13.4,10.9-24.3,24.3-24.3
				c13.4,0,24.3,10.9,24.3,24.3c0,12.7-9.7,23.1-22.1,24.2v10C252.8,228.4,251.8,229.4,250.6,229.4z"/>
		</g>
		<g>
			<path class="st3" d="M250.6,237.9c-1.2,0-2.2-1-2.2-2.2v-2c0-1.2,1-2.2,2.2-2.2c1.2,0,2.2,1,2.2,2.2v2
				C252.8,237,251.8,237.9,250.6,237.9z"/>
		</g>
	</g>
	<g>
		<path class="st3" d="M374.6,321.5H126.7c-9.6,0-17.4-7.8-17.4-17.4V148.4c0-9.6,7.8-17.4,17.4-17.4h247.9
			c9.6,0,17.4,7.8,17.4,17.4v155.7C392,313.7,384.2,321.5,374.6,321.5z M126.7,135.4c-7.2,0-13,5.9-13,13v155.7c0,7.2,5.9,13,13,13
			h247.9c7.2,0,13-5.9,13-13V148.4c0-7.2-5.9-13-13-13H126.7z"/>
	</g>
	<g>
		<path class="st3" d="M374.6,321.5H126.7c-9.6,0-17.4-7.8-17.4-17.4V276c0-1.2,1-2.2,2.2-2.2h278.3c1.2,0,2.2,1,2.2,2.2v28.1
			C392,313.7,384.2,321.5,374.6,321.5z M113.7,278.2v25.9c0,7.2,5.9,13,13,13h247.9c7.2,0,13-5.9,13-13v-25.9H113.7z"/>
	</g>
	<g>
		<path class="st5" d="M208.2,258.2c-0.6,0-1.2-0.3-1.6-0.7c-0.6-0.6-0.7-1.6-0.4-2.3l8.9-19.9c-8.2-8.9-12.8-20.5-12.8-32.7
			c0-26.6,21.7-48.3,48.3-48.3c26.6,0,48.3,21.7,48.3,48.3s-21.7,48.3-48.3,48.3c-4.3,0-8.5-0.6-12.7-1.7l-29.1,8.9
			C208.6,258.2,208.4,258.2,208.2,258.2z M250.6,158.6c-24.2,0-44,19.7-44,44c0,11.6,4.5,22.5,12.6,30.7c0.6,0.6,0.8,1.6,0.4,2.4
			l-7.5,16.8l25.2-7.7c0.4-0.1,0.8-0.1,1.2,0c3.9,1.1,8,1.7,12.1,1.7c24.2,0,44-19.7,44-44C294.6,178.4,274.9,158.6,250.6,158.6z"/>
	</g>
</g>
</svg>
