<?xml version="1.0" encoding="utf-8"?>
<!-- Generator: Adobe Illustrator 27.7.0, SVG Export Plug-In . SVG Version: 6.00 Build 0)  -->
<svg version="1.1" id="Layer_1" xmlns="http://www.w3.org/2000/svg" xmlns:xlink="http://www.w3.org/1999/xlink" x="0px" y="0px"
	 viewBox="0 0 500 500" style="enable-background:new 0 0 500 500;" xml:space="preserve">
<style type="text/css">
	.st0{fill:#F3FAFE;}
	.st1{display:none;}
	.st2{display:inline;}
	.st3{fill:#F3F2F3;}
	.st4{fill:#D5D4D5;}
	.st5{fill:#496FB6;}
	.st6{fill:#B5B6B6;}
	.st7{fill:#FFFFFF;}
	.st8{fill:#4A6FB6;}
</style>
<circle class="st0" cx="250.9" cy="250.3" r="250"/>
<g class="st1">
	<g class="st2">
		<path class="st3" d="M211.4,373.9h77.2c11.9,0,21.6,9.7,21.6,21.6v9.7H189.9v-9.7C189.9,383.6,199.5,373.9,211.4,373.9z"/>
	</g>
	<g class="st2">
		<path class="st3" d="M210.5,340h79v34h-79V340z"/>
	</g>
	<g class="st2">
		<path class="st4" d="M210.5,340h79v16.2h-79V340z"/>
	</g>
	<g class="st2">
		<path class="st4" d="M189.9,397.7h120.4v8.1H189.9L189.9,397.7z"/>
	</g>
	<g class="st2">
		<path class="st5" d="M289.6,376.6h-79c-1.5,0-2.7-1.2-2.7-2.7v-34c0-1.5,1.2-2.7,2.7-2.7h79c1.5,0,2.7,1.2,2.7,2.7v34
			C292.3,375.4,291.1,376.6,289.6,376.6z M213.2,371.2h73.6v-28.6h-73.6V371.2z"/>
	</g>
	<g class="st2">
		<path class="st5" d="M310.2,407.9H189.9c-1.5,0-2.7-1.2-2.7-2.7v-9.7c0-13.4,10.9-24.2,24.2-24.2h77.2c13.4,0,24.2,10.9,24.2,24.2
			v9.7C312.9,406.7,311.7,407.9,310.2,407.9z M192.6,402.5h115v-7c0-10.4-8.5-18.9-18.9-18.9h-77.2c-10.4,0-18.9,8.5-18.9,18.9
			V402.5z"/>
	</g>
	<g class="st2">
		<path class="st5" d="M403.6,347.5H96.5c-10.4,0-18.9-8.4-18.9-18.9V135.7c0-10.4,8.4-18.9,18.9-18.9h307.2
			c10.4,0,18.9,8.4,18.9,18.9v192.9C422.5,339,414.1,347.5,403.6,347.5z"/>
	</g>
	<g class="st2">
		<path class="st5" d="M403.6,116.9H96.5c-5.8,0-11,2.6-14.4,6.7h321.8c6.3,0,11.4,5.1,11.4,11.4v207.9c0,0.2-0.1,0.4-0.1,0.7
			c4.5-3.4,7.3-8.8,7.3-14.9V135.7C422.5,125.3,414.1,116.9,403.6,116.9z"/>
	</g>
	<g class="st2">
		<path class="st5" d="M96.5,347.5h307.2c5.8,0,11-2.6,14.4-6.7H96.2c-6.3,0-11.4-5.1-11.4-11.4V121.5c0-0.2,0.1-0.4,0.1-0.7
			c-4.5,3.4-7.3,8.8-7.3,14.9v192.9C77.6,339,86.1,347.5,96.5,347.5z"/>
	</g>
	<g class="st2">
		<path class="st3" d="M403.6,347.5H96.5c-10.4,0-18.9-8.4-18.9-18.9v-34.8h344.9v34.8C422.5,339,414.1,347.5,403.6,347.5z"/>
	</g>
	<g class="st2">
		<path class="st4" d="M405.7,347.3c0.2,0,0.4-0.1,0.6-0.1c0.5-0.1,0.9-0.1,1.4-0.2c0.2-0.1,0.5-0.1,0.7-0.2
			c0.4-0.1,0.8-0.2,1.2-0.4c0.2-0.1,0.5-0.2,0.7-0.2c0.4-0.1,0.8-0.3,1.2-0.5c0.2-0.1,0.4-0.2,0.6-0.3c0.4-0.2,0.8-0.4,1.1-0.6
			c0.2-0.1,0.4-0.2,0.5-0.3c0.4-0.2,0.8-0.5,1.1-0.8c0.1-0.1,0.3-0.2,0.4-0.3c0.4-0.3,0.8-0.7,1.2-1c0.1-0.1,0.2-0.2,0.3-0.3
			c0.5-0.4,0.9-0.9,1.3-1.4c0,0,0,0,0,0H96.2c-6.3,0-11.4-5.1-11.4-11.4v-35.6h-7.3v34.8c0,4.6,1.6,8.7,4.3,12
			c0.8,0.9,1.6,1.8,2.6,2.6c3.3,2.7,7.4,4.3,12,4.3h307.2h0C404.3,347.5,405,347.4,405.7,347.3z"/>
	</g>
	<g class="st2">
		<path class="st3" d="M250.1,145.7c-31.6,0-57.2,25.6-57.2,57.2c0,15.6,6.2,29.7,16.3,40l-11.8,26.3l36.9-11.3
			c5,1.4,10.3,2.2,15.8,2.2c31.6,0,57.2-25.6,57.2-57.2S281.6,145.7,250.1,145.7z"/>
	</g>
	<g class="st2">
		<path class="st6" d="M198.6,217.7c0-31.6,25.6-57.2,57.2-57.2c21.5,0,40.2,11.9,49.9,29.4c-5.9-25.3-28.5-44.2-55.6-44.2
			c-31.6,0-57.2,25.6-57.2,57.2c0,10.1,2.6,19.5,7.2,27.8C199.2,226.4,198.6,222.1,198.6,217.7z"/>
	</g>
	<g class="st2">
		<g>
			<path class="st3" d="M222.7,191c0-15.1,12.3-27.4,27.4-27.4c15.1,0,27.4,12.3,27.4,27.4c0,15.1-12.3,27.4-27.4,27.4v15"/>
			<path class="st5" d="M250.1,236.1c-1.5,0-2.7-1.2-2.7-2.7v-15c0-1.5,1.2-2.7,2.7-2.7c13.6,0,24.7-11.1,24.7-24.7
				c0-13.6-11.1-24.7-24.7-24.7c-13.6,0-24.7,11.1-24.7,24.7c0,1.5-1.2,2.7-2.7,2.7c-1.5,0-2.7-1.2-2.7-2.7
				c0-16.6,13.5-30.1,30.1-30.1c16.6,0,30.1,13.5,30.1,30.1c0,15.7-12.1,28.6-27.4,30v12.4C252.7,234.9,251.5,236.1,250.1,236.1z"/>
		</g>
		<g>
			<path class="st5" d="M250.1,246.6c-1.5,0-2.7-1.2-2.7-2.7v-2.5c0-1.5,1.2-2.7,2.7-2.7c1.5,0,2.7,1.2,2.7,2.7v2.5
				C252.7,245.4,251.5,246.6,250.1,246.6z"/>
		</g>
	</g>
	<g class="st2">
		<path class="st5" d="M403.6,350.2H96.5c-11.9,0-21.6-9.7-21.6-21.6V135.7c0-11.9,9.7-21.6,21.6-21.6h307.2
			c11.9,0,21.6,9.7,21.6,21.6v192.9C425.2,340.5,415.5,350.2,403.6,350.2z M96.5,119.6c-8.9,0-16.2,7.3-16.2,16.2v192.9
			c0,8.9,7.3,16.2,16.2,16.2h307.2c8.9,0,16.2-7.3,16.2-16.2V135.7c0-8.9-7.3-16.2-16.2-16.2H96.5z"/>
	</g>
	<g class="st2">
		<path class="st5" d="M403.6,350.2H96.5c-11.9,0-21.6-9.7-21.6-21.6v-34.8c0-1.5,1.2-2.7,2.7-2.7h344.9c1.5,0,2.7,1.2,2.7,2.7v34.8
			C425.2,340.5,415.5,350.2,403.6,350.2z M80.3,296.5v32.1c0,8.9,7.3,16.2,16.2,16.2h307.2c8.9,0,16.2-7.3,16.2-16.2v-32.1H80.3z"/>
	</g>
	<g class="st2">
		<path class="st7" d="M197.4,271.8c-0.8,0-1.5-0.3-2-0.9c-0.7-0.8-0.9-1.9-0.4-2.9l11-24.6c-10.2-11.1-15.8-25.4-15.8-40.5
			c0-33,26.9-59.9,59.9-59.9c33,0,59.9,26.9,59.9,59.9s-26.9,59.9-59.9,59.9c-5.3,0-10.6-0.7-15.7-2.1l-36.1,11.1
			C198,271.7,197.7,271.8,197.4,271.8z M250.1,148.4c-30,0-54.5,24.4-54.5,54.5c0,14.3,5.5,27.9,15.6,38.1c0.8,0.8,1,2,0.5,3
			l-9.4,20.8l31.2-9.6c0.5-0.2,1-0.2,1.5,0c4.9,1.4,9.9,2.1,15,2.1c30,0,54.5-24.4,54.5-54.5C304.5,172.8,280.1,148.4,250.1,148.4z"
			/>
	</g>
</g>
<g id="Layer_3">
	<g id="Layer_2_9_">
		<path class="st7" d="M372.8,185.6c-5.2-2.8-10.3-5.5-15.3-8.6c-14.6-9-27.6-20.3-41.6-30.2c-12.6-8.9-27-16-38.2-26.7
			c-2-1.9-3.8-4.2-5.6-6.4c-6.2-2.4-12.1-5.6-15.2-11.1c-0.2-0.1-0.4-0.3-0.6-0.4c-4.2,3.5-8.9,6.4-13.2,9.8c-2.8,2.2-6.1,1-7.8-1.1
			c-4.4,5.1-11.2,8.9-16.5,11.8c-5,2.7-10.2,5.1-15,8.2c-6.9,4.4-13.2,9.6-20,14.1c-6.8,4.5-14,8.2-20.8,12.7
			c-6.9,4.6-13.6,9.3-20.5,14c-13.8,9.5-27.8,18.6-43.3,25.1c-1.1,0.5-2.6,0.2-3.8-0.5c-0.2,0.5-0.5,1-0.8,1.4V401H407V207.7
			c-0.4,0-0.7-0.1-1.1-0.2C392.5,203.1,382.5,194.8,372.8,185.6z"/>
		<g id="XMLID_4252_">
			<g id="XMLID_4253_">
				<g id="XMLID_4256_">
					<path class="st8" d="M108.2,400.7l92.6-111.6l49.1,36l51-34.4l92.6,110.9L108.2,400.7z"/>
					<path class="st8" d="M201.1,291.4l46.8,34.4l2,1.3l2-1.3l48.8-32.7L390,400l-278.2-0.7L201.1,291.4z M200.8,286.8l-95.9,115.5
						l292.2,0.7l-95.9-114.5l-51.4,34.7L200.8,286.8z"/>
				</g>
				<g id="XMLID_4255_">
					<path class="st8" d="M311.4,283.8l93.9-69.4v182.3L311.4,283.8z"/>
					<path class="st8" d="M403.7,217.7v174.4l-89.7-108L403.7,217.7z M407,211.2l-97.8,72L407,401V211.2z"/>
				</g>
				<g id="XMLID_4254_">
					<path class="st8" d="M96.1,212.5c15.1,11.8,81.5,61.5,94.6,70.7L96.1,397.1L96.1,212.5z"/>
					<path class="st8" d="M97.7,215.8c5.9,4.6,18.3,13.7,43.9,33.1c12.1,9.2,24.5,18.3,33.7,25.2c6.5,4.9,10.1,7.9,12.8,9.5
						L97.7,392.1V215.8z M94.5,209.2v192.4l98.2-118.5C192.6,283.2,94.5,209.5,94.5,209.2z"/>
				</g>
			</g>
		</g>
		<g id="XMLID_3978_">
			<g id="XMLID_3981_">
				<path class="st8" d="M244.7,213.1c-6.5,0-7.5-6.2-7.5-8.8c0-12.4,9.2-23.2,20.3-23.2c1.6,0,3.3,0.3,4.9,0.7l-2.6,14.1
					C258.4,204,251.5,213.1,244.7,213.1z"/>
				<path class="st8" d="M257.7,183c1,0,2,0,2.9,0.3l-2.3,12.4c-1.3,7.2-7.5,16-13.4,16c-4.9,0-5.9-3.9-5.9-7.2
					C239.1,192.9,247.6,183,257.7,183 M257.7,179.8c-12.1,0-21.9,11.5-21.9,24.9c0,5.9,2.9,10.5,9.2,10.5c7.9,0,15.4-10.1,16.7-18.7
					l2.9-15.4C263,180.4,260.7,179.8,257.7,179.8z"/>
			</g>
			<g id="XMLID_3979_">
				<path class="st8" d="M97.4,199.7l152.8-99.8l154.5,100.8L250.2,312L97.4,199.7z M256.1,149c-29.5,0-52,23.6-52,54.6
					c0,25.9,18.3,44.5,43.2,44.5c9.8,0,17.7-1.6,25.2-5.9l1.3-0.7l-3.3-9.2l-1.6,1c-5.2,2.9-12.4,4.6-20,4.6
					c-20.3,0-33.7-14.4-33.7-35.7c0-25.5,16.7-44.2,39.6-44.2c19.6,0,31.7,12.4,31.7,32.7c0,14.4-6.9,23.6-13.1,23.6
					c-1,0-2-0.3-2.3-1c-1-1-2-3.9-0.3-12.4l4.9-26.2l-1.3-0.7c-4.3-2-9.8-2.9-15.4-2.9c-19,0-34.4,15.4-34.4,34.4
					c0,12.4,8.2,19,16.4,19c7.5,0,13.7-3.3,18.7-9.5c0.3,2.6,1.6,4.6,2.9,6.2c2,2.3,5.2,3.6,8.5,3.6c13.1,0,26.2-11.8,26.2-34.4
					C297.7,166,280.7,149,256.1,149z"/>
				<path class="st8" d="M250.2,101.6l151.2,99.2l-151.5,109l-149.5-110L250.2,101.6z M247.6,249.8c10.1,0,18.3-2,26.2-5.9l2.6-1.3
					l-1-2.6l-2.3-5.9l-1.3-3.6l-3.3,2c-4.9,2.9-11.8,4.3-19.3,4.3c-19.3,0-32.1-13.7-32.1-34c0-24.5,16-42.5,38-42.5
					c18.7,0,30.1,11.8,30.1,31.1c0,14.4-6.5,21.9-11.5,21.9c-0.7,0-1-0.3-1-0.3c-0.3-0.3-1.6-2.6,0-11.1l4.6-24.9l0.3-2.6l-2.3-1
					c-4.6-2-10.1-3.3-16-3.3c-19.6,0-36,16-36,36c0,13.4,9.2,20.6,18,20.6c7.2,0,13.1-2.6,18-7.9c0.7,1.6,1.6,2.9,2.6,3.9
					c2.3,2.6,5.9,3.9,9.8,3.9c13.7,0,27.8-12.4,27.8-36c0-25.2-17.7-42.9-43.2-42.9c-30.4,0-53.7,24.2-53.7,56.3
					C202.4,230.5,221.4,249.8,247.6,249.8 M250.2,97.6L94.5,199.4l155.4,114.2l157.4-113.2L250.2,97.6z M247.6,246.5
					c-22.6,0-41.6-16.7-41.6-42.9c0-28.5,19.6-53,50.4-53c23.9,0,39.9,16.7,39.9,39.6c0,20.6-11.5,32.7-24.5,32.7
					c-5.6,0-10.5-3.6-10.1-12.1H261c-4.9,8.2-11.1,12.1-19.3,12.1c-7.9,0-14.7-6.5-14.7-17.3c0-17,13.4-32.7,32.7-32.7
					c5.9,0,11.1,1.3,14.7,2.9l-4.6,24.9c-2,10.5-0.3,15.4,4.3,15.4h0.3c6.9,0,14.7-9.5,14.7-25.2c0-20-12.1-34.4-33.4-34.4
					c-22.3,0-41.2,17.7-41.2,45.8c0,22.9,15.1,37.3,35.3,37.3c7.9,0,15.1-1.6,20.6-4.9l2.3,5.9C264.6,244.9,256.8,246.5,247.6,246.5
					z"/>
			</g>
		</g>
	</g>
</g>
</svg>
