<?xml version="1.0" standalone="no"?>
<!DOCTYPE svg PUBLIC "-//W3C//DTD SVG 20010904//EN"
 "http://www.w3.org/TR/2001/REC-SVG-20010904/DTD/svg10.dtd">
<svg version="1.0" xmlns="http://www.w3.org/2000/svg"
 width="104.000000pt" height="96.000000pt" viewBox="0 0 104.000000 96.000000"
 preserveAspectRatio="xMidYMid meet">

<g transform="translate(0.000000,96.000000) scale(0.100000,-0.100000)"
fill="#000000" stroke="none">
<path d="M669 654 c-71 -21 -114 -76 -130 -165 -11 -60 -17 -74 -44 -95 -49
-37 -107 -33 -148 9 l-32 32 80 3 c83 3 105 12 105 43 0 28 -35 41 -108 38
-72 -2 -78 5 -42 43 29 31 101 36 139 9 24 -18 31 -19 31 -7 0 8 7 22 16 30
13 13 13 18 2 29 -37 35 -135 49 -181 26 -40 -21 -94 -87 -105 -128 -12 -50
-2 -98 29 -143 35 -50 42 -55 93 -72 62 -21 120 -8 172 39 29 28 64 107 64
148 0 91 137 136 190 63 43 -59 40 -108 -10 -161 -31 -34 -109 -36 -139 -4
l-19 21 -17 -32 c-17 -33 -12 -56 6 -30 8 12 9 10 4 -6 -5 -18 0 -24 26 -33
60 -21 136 -10 179 25 26 22 70 109 70 139 0 122 -118 213 -231 179z"/>
</g>
</svg>
