<svg width="566" height="321" viewBox="0 0 566 321" fill="none" xmlns="http://www.w3.org/2000/svg">
<path d="M154 320C81 315.5 -2.99996 276.8 1.00004 148C3.6667 106.333 33.2 19.4 130 5.00001C155 -0.999995 217.8 -0.999992 269 47C261.333 54.6667 244 78.4 236 112C227.333 97.3333 198.8 68.2 154 69C98 70 76 118 69 127H203C209 128.667 221.9 135.2 225.5 148C226.732 152.381 227.375 154.523 227.64 155.255C227.521 154.387 227.384 153.567 227.238 152.813C227.015 151.851 226.751 150.756 226.5 149.732C226.74 150.54 227 151.591 227.238 152.813C227.696 154.79 227.983 156.201 227.64 155.255C228.263 159.809 228.367 165.698 226.5 170.5C223 179.5 212 189 203 192H72C76.6667 208.833 97.7 244.3 144.5 251.5C156.167 252.667 183 252.6 197 243C209.667 235.833 236.9 215.1 244.5 189.5C246 184.5 248.9 173.1 248.5 167.5C248.1 161.9 249.667 148.167 250.5 142L253.5 122.5L260 101.5L271.5 77.5L287 56.5L303 40.5L319 28.5C330 19.8333 359.8 2.30001 391 1.50001C411.667 -1.33333 463 0.900005 503 32.5C553 72 582 137.5 553 220C524 302.5 429 319 418 315.5H395C381.333 314.333 351.9 310.2 343.5 303C329.667 295.833 301.1 279.6 297.5 272C308 255.667 329.1 220.1 329.5 208.5C337 218.333 357.5 239.8 379.5 247C390.833 250.667 421.5 254.2 453.5 239C475.5 225.333 514.1 182.9 492.5 122.5C486.5 108.5 465 78.1 427 68.5C410.833 64.8333 372 64 346 90C339.167 95.1667 323.8 112.8 317 142C308.5 178.5 321.5 178 303 220C284.5 262 253.5 294 216.5 307C186.9 317.4 162.5 320 154 320Z" fill="#467FC1"/>
<path d="M154 320C81 315.5 -2.99996 276.8 1.00004 148C3.6667 106.333 33.2 19.4 130 5.00001C155 -0.999995 217.8 -0.999992 269 47C261.333 54.6667 244 78.4 236 112C227.333 97.3333 198.8 68.2 154 69C98 70 76 118 69 127H203C209 128.667 221.9 135.2 225.5 148C229.1 160.8 227.667 154.488 226.5 149.732C227.667 153.655 229.3 163.3 226.5 170.5C223 179.5 212 189 203 192H72C76.6667 208.833 97.7 244.3 144.5 251.5C156.167 252.667 183 252.6 197 243C209.667 235.833 236.9 215.1 244.5 189.5C246 184.5 248.9 173.1 248.5 167.5C248.1 161.9 249.667 148.167 250.5 142L253.5 122.5L260 101.5L271.5 77.5L287 56.5L303 40.5L319 28.5C330 19.8333 359.8 2.30001 391 1.50001C411.667 -1.33333 463 0.900005 503 32.5C553 72 582 137.5 553 220C524 302.5 429 319 418 315.5H395C381.333 314.333 351.9 310.2 343.5 303C329.667 295.833 301.1 279.6 297.5 272C308 255.667 329.1 220.1 329.5 208.5C337 218.333 357.5 239.8 379.5 247C390.833 250.667 421.5 254.2 453.5 239C475.5 225.333 514.1 182.9 492.5 122.5C486.5 108.5 465 78.1 427 68.5C410.833 64.8333 372 64 346 90C339.167 95.1667 323.8 112.8 317 142C308.5 178.5 321.5 178 303 220C284.5 262 253.5 294 216.5 307C186.9 317.4 162.5 320 154 320Z" stroke="#467FC1"/>
</svg>
