<?xml version="1.0" encoding="utf-8"?>
<!-- Generator: Adobe Illustrator 27.7.0, SVG Export Plug-In . SVG Version: 6.00 Build 0)  -->
<svg version="1.1" id="Layer_1" xmlns="http://www.w3.org/2000/svg" xmlns:xlink="http://www.w3.org/1999/xlink" x="0px" y="0px"
	 viewBox="0 0 16 16" style="enable-background:new 0 0 16 16;" xml:space="preserve">
<style type="text/css">
	.st0{fill:#FFFFFF;}
	.st1{fill:#477FC1;}
</style>
<rect x="0" y="0.1" class="st0" width="16" height="16"/>
<path class="st1" d="M4.7,12.2c-1.9-0.1-4.1-1.1-4-4.5C0.8,6.7,1.5,4.4,4,4c0.6-0.2,2.3-0.2,3.6,1.1C7.4,5.3,7,6,6.8,6.8
	c-0.2-0.4-1-1.1-2.1-1.1c-1.5,0-2,1.3-2.2,1.5h3.5c0.2,0,0.5,0.2,0.6,0.5c0,0.1,0,0.2,0.1,0.2c0,0,0,0,0-0.1c0,0,0-0.1,0-0.1
	c0,0,0,0,0,0.1c0,0.1,0,0.1,0,0.1c0,0.1,0,0.3,0,0.4C6.4,8.6,6.2,8.8,5.9,8.9H2.5c0.1,0.4,0.7,1.4,1.9,1.5c0.3,0,1,0,1.4-0.2
	C6.1,10,6.8,9.5,7,8.8c0-0.1,0.1-0.4,0.1-0.6s0-0.5,0.1-0.7l0.1-0.5l0.2-0.5l0.3-0.6l0.4-0.5L8.5,5l0.4-0.3C9.2,4.4,10,4,10.8,4
	c0.5-0.1,1.9,0,2.9,0.8c1.3,1,2.1,2.7,1.3,4.9c-0.8,2.1-3.2,2.6-3.5,2.5h-0.6c-0.4,0-1.1-0.1-1.3-0.3c-0.4-0.2-1.1-0.6-1.2-0.8
	c0.3-0.4,0.8-1.3,0.8-1.6c0.2,0.3,0.7,0.8,1.3,1c0.3,0.1,1.1,0.2,1.9-0.2c0.6-0.4,1.6-1.5,1-3c-0.2-0.4-0.7-1.2-1.7-1.4
	c-0.4-0.1-1.4-0.1-2.1,0.6C9.5,6.4,9.1,6.8,8.9,7.6C8.7,8.6,9,8.5,8.5,9.6s-1.3,1.9-2.2,2.3C5.5,12.2,4.9,12.2,4.7,12.2z"/>
</svg>
