<?xml version="1.0" encoding="utf-8"?>
<!-- Generator: Adobe Illustrator 27.7.0, SVG Export Plug-In . SVG Version: 6.00 Build 0)  -->
<svg version="1.1" id="Layer_1" xmlns="http://www.w3.org/2000/svg" xmlns:xlink="http://www.w3.org/1999/xlink" x="0px" y="0px"
	 viewBox="0 0 500 500" style="enable-background:new 0 0 500 500;" xml:space="preserve">
<style type="text/css">
	.st0{fill:#F3FAFE;}
	.st1{fill:#F3F2F3;}
	.st2{fill:#D5D4D5;}
	.st3{fill:#496FB6;}
	.st4{fill:#B5B6B6;}
	.st5{fill:#FFFFFF;}
</style>
<circle class="st0" cx="250.1" cy="249.6" r="250"/>
<g>
	<g>
		<path class="st1" d="M211.4,373.9h77.2c11.9,0,21.6,9.7,21.6,21.6v9.7H189.9v-9.7C189.9,383.6,199.5,373.9,211.4,373.9z"/>
	</g>
	<g>
		<path class="st1" d="M210.5,340h79v34h-79V340z"/>
	</g>
	<g>
		<path class="st2" d="M210.5,340h79v16.2h-79V340z"/>
	</g>
	<g>
		<path class="st2" d="M189.9,397.7h120.4v8.1H189.9L189.9,397.7z"/>
	</g>
	<g>
		<path class="st3" d="M289.6,376.6h-79c-1.5,0-2.7-1.2-2.7-2.7v-34c0-1.5,1.2-2.7,2.7-2.7h79c1.5,0,2.7,1.2,2.7,2.7v34
			C292.3,375.4,291.1,376.6,289.6,376.6z M213.2,371.2h73.6v-28.6h-73.6V371.2z"/>
	</g>
	<g>
		<path class="st3" d="M310.2,407.9H189.9c-1.5,0-2.7-1.2-2.7-2.7v-9.7c0-13.4,10.9-24.2,24.2-24.2h77.2c13.4,0,24.2,10.9,24.2,24.2
			v9.7C312.9,406.7,311.7,407.9,310.2,407.9z M192.6,402.5h115v-7c0-10.4-8.5-18.9-18.9-18.9h-77.2c-10.4,0-18.9,8.5-18.9,18.9
			V402.5z"/>
	</g>
	<g>
		<path class="st3" d="M403.6,347.5H96.5c-10.4,0-18.9-8.4-18.9-18.9V135.7c0-10.4,8.4-18.9,18.9-18.9h307.2
			c10.4,0,18.9,8.4,18.9,18.9v192.9C422.5,339,414.1,347.5,403.6,347.5z"/>
	</g>
	<g>
		<path class="st3" d="M403.6,116.9H96.5c-5.8,0-11,2.6-14.4,6.7h321.8c6.3,0,11.4,5.1,11.4,11.4v207.9c0,0.2-0.1,0.4-0.1,0.7
			c4.5-3.4,7.3-8.8,7.3-14.9V135.7C422.5,125.3,414.1,116.9,403.6,116.9z"/>
	</g>
	<g>
		<path class="st3" d="M96.5,347.5h307.2c5.8,0,11-2.6,14.4-6.7H96.2c-6.3,0-11.4-5.1-11.4-11.4V121.5c0-0.2,0.1-0.4,0.1-0.7
			c-4.5,3.4-7.3,8.8-7.3,14.9v192.9C77.6,339,86.1,347.5,96.5,347.5z"/>
	</g>
	<g>
		<path class="st1" d="M403.6,347.5H96.5c-10.4,0-18.9-8.4-18.9-18.9v-34.8h344.9v34.8C422.5,339,414.1,347.5,403.6,347.5z"/>
	</g>
	<g>
		<path class="st2" d="M405.7,347.3c0.2,0,0.4-0.1,0.6-0.1c0.5-0.1,0.9-0.1,1.4-0.2c0.2-0.1,0.5-0.1,0.7-0.2
			c0.4-0.1,0.8-0.2,1.2-0.4c0.2-0.1,0.5-0.2,0.7-0.2c0.4-0.1,0.8-0.3,1.2-0.5c0.2-0.1,0.4-0.2,0.6-0.3c0.4-0.2,0.8-0.4,1.1-0.6
			c0.2-0.1,0.4-0.2,0.5-0.3c0.4-0.2,0.8-0.5,1.1-0.8c0.1-0.1,0.3-0.2,0.4-0.3c0.4-0.3,0.8-0.7,1.2-1c0.1-0.1,0.2-0.2,0.3-0.3
			c0.5-0.4,0.9-0.9,1.3-1.4c0,0,0,0,0,0H96.2c-6.3,0-11.4-5.1-11.4-11.4v-35.6h-7.3v34.8c0,4.6,1.6,8.7,4.3,12
			c0.8,0.9,1.6,1.8,2.6,2.6c3.3,2.7,7.4,4.3,12,4.3h307.2h0C404.3,347.5,405,347.4,405.7,347.3z"/>
	</g>
	<g>
		<path class="st1" d="M250.1,145.7c-31.6,0-57.2,25.6-57.2,57.2c0,15.6,6.2,29.7,16.3,40l-11.8,26.3l36.9-11.3
			c5,1.4,10.3,2.2,15.8,2.2c31.6,0,57.2-25.6,57.2-57.2S281.6,145.7,250.1,145.7z"/>
	</g>
	<g>
		<path class="st4" d="M198.6,217.7c0-31.6,25.6-57.2,57.2-57.2c21.5,0,40.2,11.9,49.9,29.4c-5.9-25.3-28.5-44.2-55.6-44.2
			c-31.6,0-57.2,25.6-57.2,57.2c0,10.1,2.6,19.5,7.2,27.8C199.2,226.4,198.6,222.1,198.6,217.7z"/>
	</g>
	<g>
		<g>
			<path class="st1" d="M222.7,191c0-15.1,12.3-27.4,27.4-27.4c15.1,0,27.4,12.3,27.4,27.4c0,15.1-12.3,27.4-27.4,27.4v15"/>
			<path class="st3" d="M250.1,236.1c-1.5,0-2.7-1.2-2.7-2.7v-15c0-1.5,1.2-2.7,2.7-2.7c13.6,0,24.7-11.1,24.7-24.7
				c0-13.6-11.1-24.7-24.7-24.7c-13.6,0-24.7,11.1-24.7,24.7c0,1.5-1.2,2.7-2.7,2.7c-1.5,0-2.7-1.2-2.7-2.7
				c0-16.6,13.5-30.1,30.1-30.1c16.6,0,30.1,13.5,30.1,30.1c0,15.7-12.1,28.6-27.4,30v12.4C252.7,234.9,251.5,236.1,250.1,236.1z"/>
		</g>
		<g>
			<path class="st3" d="M250.1,246.6c-1.5,0-2.7-1.2-2.7-2.7v-2.5c0-1.5,1.2-2.7,2.7-2.7c1.5,0,2.7,1.2,2.7,2.7v2.5
				C252.7,245.4,251.5,246.6,250.1,246.6z"/>
		</g>
	</g>
	<g>
		<path class="st3" d="M403.6,350.2H96.5c-11.9,0-21.6-9.7-21.6-21.6V135.7c0-11.9,9.7-21.6,21.6-21.6h307.2
			c11.9,0,21.6,9.7,21.6,21.6v192.9C425.2,340.5,415.5,350.2,403.6,350.2z M96.5,119.6c-8.9,0-16.2,7.3-16.2,16.2v192.9
			c0,8.9,7.3,16.2,16.2,16.2h307.2c8.9,0,16.2-7.3,16.2-16.2V135.7c0-8.9-7.3-16.2-16.2-16.2H96.5z"/>
	</g>
	<g>
		<path class="st3" d="M403.6,350.2H96.5c-11.9,0-21.6-9.7-21.6-21.6v-34.8c0-1.5,1.2-2.7,2.7-2.7h344.9c1.5,0,2.7,1.2,2.7,2.7v34.8
			C425.2,340.5,415.5,350.2,403.6,350.2z M80.3,296.5v32.1c0,8.9,7.3,16.2,16.2,16.2h307.2c8.9,0,16.2-7.3,16.2-16.2v-32.1H80.3z"/>
	</g>
	<g>
		<path class="st5" d="M197.4,271.8c-0.8,0-1.5-0.3-2-0.9c-0.7-0.8-0.9-1.9-0.4-2.9l11-24.6c-10.2-11.1-15.8-25.4-15.8-40.5
			c0-33,26.9-59.9,59.9-59.9c33,0,59.9,26.9,59.9,59.9s-26.9,59.9-59.9,59.9c-5.3,0-10.6-0.7-15.7-2.1l-36.1,11.1
			C198,271.7,197.7,271.8,197.4,271.8z M250.1,148.4c-30,0-54.5,24.4-54.5,54.5c0,14.3,5.5,27.9,15.6,38.1c0.8,0.8,1,2,0.5,3
			l-9.4,20.8l31.2-9.6c0.5-0.2,1-0.2,1.5,0c4.9,1.4,9.9,2.1,15,2.1c30,0,54.5-24.4,54.5-54.5C304.5,172.8,280.1,148.4,250.1,148.4z"
			/>
	</g>
</g>
</svg>
